# xmcd
#
# Track frame offsets: 
#        150
#        17522
#        31165
#        48781
#        62007
#        79704
#        94792
#        110140
#        123792
#        139301
#        154425
#        167029
#        196970
#
# Disc length: 2803 seconds
#
# Revision: 0
# Processed by: cddbd v1.5.2PL0 Copyright (c) Steve Scherf et al.
# Submitted via: ExactAudioCopy v0.99pb5
#
DISCID=a50af10d
DTITLE=Pierre Lautomne - le coeur des lièvres
DYEAR=2012
DGENRE=Chanson
TTITLE0=A 13 heures
TTITLE1=Somerset
TTITLE2=Cowboy maudit
TTITLE3=L'élastique
TTITLE4=Qui prend soin de nous
TTITLE5=Le coeur des lièvres
TTITLE6=Marin-chanteur
TTITLE7=Oh Jane!
TTITLE8=Delta blues
TTITLE9=Acide ou gazole
TTITLE10=Fanfare nationale
TTITLE11=Slow
TTITLE12=Un de ces jours
EXTD=
EXTT0=
EXTT1=
EXTT2=
EXTT3=
EXTT4=
EXTT5=
EXTT6=
EXTT7=
EXTT8=
EXTT9=
EXTT10=
EXTT11=
EXTT12=
PLAYORDER=
